<mxfile host="app.diagrams.net" agent="Mozilla/5.0 (Windows NT 10.0; Win64; x64) AppleWebKit/537.36 (KHTML, like Gecko) Chrome/136.0.0.0 Safari/537.36" version="26.2.14">
  <diagram name="Page-1" id="BdVPdbwVXD11Ff0uZXQc">
    <mxGraphModel dx="1426" dy="757" grid="1" gridSize="10" guides="1" tooltips="1" connect="1" arrows="1" fold="1" page="1" pageScale="1" pageWidth="827" pageHeight="1169" math="0" shadow="0">
      <root>
        <mxCell id="0" />
        <mxCell id="1" parent="0" />
        <mxCell id="HxDUxSBhuAoBdyelIZIn-28" style="edgeStyle=orthogonalEdgeStyle;rounded=0;orthogonalLoop=1;jettySize=auto;html=1;exitX=0.5;exitY=1;exitDx=0;exitDy=0;entryX=0.5;entryY=0;entryDx=0;entryDy=0;" parent="1" source="HxDUxSBhuAoBdyelIZIn-1" target="HxDUxSBhuAoBdyelIZIn-2" edge="1">
          <mxGeometry relative="1" as="geometry" />
        </mxCell>
        <mxCell id="HxDUxSBhuAoBdyelIZIn-1" value="&lt;font style=&quot;font-size: 18px;&quot;&gt;Draw&lt;/font&gt;" style="rounded=1;whiteSpace=wrap;html=1;" parent="1" vertex="1">
          <mxGeometry x="160" y="20" width="120" height="60" as="geometry" />
        </mxCell>
        <mxCell id="HxDUxSBhuAoBdyelIZIn-29" style="edgeStyle=orthogonalEdgeStyle;rounded=0;orthogonalLoop=1;jettySize=auto;html=1;exitX=0.5;exitY=1;exitDx=0;exitDy=0;entryX=0.5;entryY=0;entryDx=0;entryDy=0;" parent="1" source="HxDUxSBhuAoBdyelIZIn-2" target="HxDUxSBhuAoBdyelIZIn-3" edge="1">
          <mxGeometry relative="1" as="geometry" />
        </mxCell>
        <mxCell id="HxDUxSBhuAoBdyelIZIn-2" value="&lt;font style=&quot;font-size: 18px;&quot;&gt;Farming&lt;/font&gt;" style="rounded=1;whiteSpace=wrap;html=1;" parent="1" vertex="1">
          <mxGeometry x="160" y="130" width="120" height="60" as="geometry" />
        </mxCell>
        <mxCell id="HxDUxSBhuAoBdyelIZIn-30" style="edgeStyle=orthogonalEdgeStyle;rounded=0;orthogonalLoop=1;jettySize=auto;html=1;exitX=0.5;exitY=1;exitDx=0;exitDy=0;entryX=0.5;entryY=0;entryDx=0;entryDy=0;" parent="1" source="HxDUxSBhuAoBdyelIZIn-3" target="HxDUxSBhuAoBdyelIZIn-4" edge="1">
          <mxGeometry relative="1" as="geometry" />
        </mxCell>
        <mxCell id="HxDUxSBhuAoBdyelIZIn-3" value="&lt;font style=&quot;font-size: 18px;&quot;&gt;Movement&lt;/font&gt;" style="rounded=1;whiteSpace=wrap;html=1;" parent="1" vertex="1">
          <mxGeometry x="160" y="235" width="120" height="60" as="geometry" />
        </mxCell>
        <mxCell id="HxDUxSBhuAoBdyelIZIn-31" style="edgeStyle=orthogonalEdgeStyle;rounded=0;orthogonalLoop=1;jettySize=auto;html=1;exitX=0.5;exitY=1;exitDx=0;exitDy=0;entryX=0.5;entryY=0;entryDx=0;entryDy=0;" parent="1" source="HxDUxSBhuAoBdyelIZIn-4" target="HxDUxSBhuAoBdyelIZIn-5" edge="1">
          <mxGeometry relative="1" as="geometry" />
        </mxCell>
        <mxCell id="HxDUxSBhuAoBdyelIZIn-33" style="edgeStyle=orthogonalEdgeStyle;rounded=0;orthogonalLoop=1;jettySize=auto;html=1;exitX=1;exitY=0.5;exitDx=0;exitDy=0;entryX=0;entryY=0.5;entryDx=0;entryDy=0;" parent="1" source="HxDUxSBhuAoBdyelIZIn-4" target="HxDUxSBhuAoBdyelIZIn-16" edge="1">
          <mxGeometry relative="1" as="geometry" />
        </mxCell>
        <mxCell id="HxDUxSBhuAoBdyelIZIn-4" value="&lt;font style=&quot;font-size: 18px;&quot;&gt;Battle&lt;/font&gt;" style="rounded=1;whiteSpace=wrap;html=1;" parent="1" vertex="1">
          <mxGeometry x="160" y="337.5" width="120" height="60" as="geometry" />
        </mxCell>
        <mxCell id="HxDUxSBhuAoBdyelIZIn-32" style="edgeStyle=orthogonalEdgeStyle;rounded=0;orthogonalLoop=1;jettySize=auto;html=1;exitX=0.5;exitY=1;exitDx=0;exitDy=0;entryX=0.5;entryY=0;entryDx=0;entryDy=0;" parent="1" source="HxDUxSBhuAoBdyelIZIn-5" target="HxDUxSBhuAoBdyelIZIn-6" edge="1">
          <mxGeometry relative="1" as="geometry" />
        </mxCell>
        <mxCell id="HxDUxSBhuAoBdyelIZIn-5" value="&lt;font style=&quot;font-size: 18px;&quot;&gt;Smite&lt;/font&gt;" style="rounded=1;whiteSpace=wrap;html=1;" parent="1" vertex="1">
          <mxGeometry x="160" y="450" width="120" height="60" as="geometry" />
        </mxCell>
        <mxCell id="HxDUxSBhuAoBdyelIZIn-6" value="&lt;font style=&quot;font-size: 18px;&quot;&gt;End&lt;/font&gt;" style="rounded=1;whiteSpace=wrap;html=1;" parent="1" vertex="1">
          <mxGeometry x="160" y="555" width="120" height="60" as="geometry" />
        </mxCell>
        <mxCell id="HxDUxSBhuAoBdyelIZIn-12" style="edgeStyle=orthogonalEdgeStyle;rounded=0;orthogonalLoop=1;jettySize=auto;html=1;exitX=0.5;exitY=1;exitDx=0;exitDy=0;entryX=1;entryY=0.5;entryDx=0;entryDy=0;" parent="1" source="HxDUxSBhuAoBdyelIZIn-16" target="HxDUxSBhuAoBdyelIZIn-5" edge="1">
          <mxGeometry relative="1" as="geometry">
            <mxPoint x="445" y="410" as="sourcePoint" />
            <mxPoint x="280" y="430" as="targetPoint" />
            <Array as="points">
              <mxPoint x="420" y="480" />
            </Array>
          </mxGeometry>
        </mxCell>
        <mxCell id="HxDUxSBhuAoBdyelIZIn-13" value="Yes" style="text;html=1;align=center;verticalAlign=middle;resizable=0;points=[];autosize=1;strokeColor=none;fillColor=none;" parent="1" vertex="1">
          <mxGeometry x="330" y="473" width="40" height="30" as="geometry" />
        </mxCell>
        <mxCell id="HxDUxSBhuAoBdyelIZIn-24" style="edgeStyle=orthogonalEdgeStyle;rounded=0;orthogonalLoop=1;jettySize=auto;html=1;exitX=1;exitY=0.5;exitDx=0;exitDy=0;entryX=0;entryY=0.5;entryDx=0;entryDy=0;" parent="1" source="HxDUxSBhuAoBdyelIZIn-16" target="HxDUxSBhuAoBdyelIZIn-17" edge="1">
          <mxGeometry relative="1" as="geometry">
            <mxPoint x="530" y="270" as="targetPoint" />
          </mxGeometry>
        </mxCell>
        <mxCell id="HxDUxSBhuAoBdyelIZIn-16" value="All attacking champions have attacked or passed?" style="whiteSpace=wrap;html=1;aspect=fixed;" parent="1" vertex="1">
          <mxGeometry x="370" y="320" width="95" height="95" as="geometry" />
        </mxCell>
        <mxCell id="HxDUxSBhuAoBdyelIZIn-22" style="edgeStyle=orthogonalEdgeStyle;rounded=0;orthogonalLoop=1;jettySize=auto;html=1;exitX=0.5;exitY=1;exitDx=0;exitDy=0;entryX=0.5;entryY=0;entryDx=0;entryDy=0;" parent="1" target="HxDUxSBhuAoBdyelIZIn-20" edge="1">
          <mxGeometry relative="1" as="geometry">
            <mxPoint x="595" y="303" as="sourcePoint" />
          </mxGeometry>
        </mxCell>
        <mxCell id="HxDUxSBhuAoBdyelIZIn-17" value="Select champion and attack" style="rounded=1;whiteSpace=wrap;html=1;" parent="1" vertex="1">
          <mxGeometry x="550" y="260" width="90" height="50" as="geometry" />
        </mxCell>
        <mxCell id="HxDUxSBhuAoBdyelIZIn-23" style="edgeStyle=orthogonalEdgeStyle;rounded=0;orthogonalLoop=1;jettySize=auto;html=1;exitX=0.5;exitY=1;exitDx=0;exitDy=0;entryX=0.5;entryY=0;entryDx=0;entryDy=0;" parent="1" source="HxDUxSBhuAoBdyelIZIn-20" target="HxDUxSBhuAoBdyelIZIn-21" edge="1">
          <mxGeometry relative="1" as="geometry" />
        </mxCell>
        <mxCell id="HxDUxSBhuAoBdyelIZIn-20" value="Opponent defends" style="rounded=1;whiteSpace=wrap;html=1;" parent="1" vertex="1">
          <mxGeometry x="550" y="343" width="90" height="50" as="geometry" />
        </mxCell>
        <mxCell id="HxDUxSBhuAoBdyelIZIn-25" style="edgeStyle=orthogonalEdgeStyle;rounded=0;orthogonalLoop=1;jettySize=auto;html=1;exitX=0;exitY=0.5;exitDx=0;exitDy=0;entryX=0.75;entryY=1;entryDx=0;entryDy=0;" parent="1" source="HxDUxSBhuAoBdyelIZIn-21" target="HxDUxSBhuAoBdyelIZIn-16" edge="1">
          <mxGeometry relative="1" as="geometry" />
        </mxCell>
        <mxCell id="HxDUxSBhuAoBdyelIZIn-21" value="Opponent selects&amp;nbsp; champion in same zone and attacks" style="rounded=1;whiteSpace=wrap;html=1;" parent="1" vertex="1">
          <mxGeometry x="550" y="433" width="90" height="70" as="geometry" />
        </mxCell>
        <mxCell id="HxDUxSBhuAoBdyelIZIn-26" value="No" style="text;html=1;align=center;verticalAlign=middle;resizable=0;points=[];autosize=1;strokeColor=none;fillColor=none;" parent="1" vertex="1">
          <mxGeometry x="440" y="285" width="40" height="30" as="geometry" />
        </mxCell>
      </root>
    </mxGraphModel>
  </diagram>
</mxfile>
